<svg width="19" height="16" viewBox="0 0 19 16" fill="none" xmlns="http://www.w3.org/2000/svg">
<path d="M16 5.91634V3.99968C16 3.06625 16 2.59954 15.8183 2.24303C15.6586 1.92942 15.4036 1.67445 15.09 1.51467C14.7335 1.33301 14.2667 1.33301 13.3333 1.33301H3.66667C2.73325 1.33301 2.26654 1.33301 1.91002 1.51466C1.59641 1.67445 1.34144 1.92942 1.18166 2.24302C1 2.59954 1 3.06625 1 3.99967V11.9997C1 12.9331 1 13.3998 1.18166 13.7563C1.34144 14.0699 1.59641 14.3249 1.91002 14.4847C2.26654 14.6663 2.73325 14.6663 3.66667 14.6663L13.3333 14.6663C14.2668 14.6663 14.7335 14.6663 15.09 14.4847C15.4036 14.3249 15.6586 14.0699 15.8183 13.7563C16 13.3998 16 12.9331 16 11.9997V10.083M11.8333 7.99967C11.8333 7.61246 11.8333 7.41886 11.8654 7.25786C11.9969 6.59671 12.5137 6.07988 13.1748 5.94837C13.3358 5.91634 13.5295 5.91634 13.9167 5.91634H15.5833C15.9705 5.91634 16.1642 5.91634 16.3252 5.94837C16.9863 6.07988 17.5031 6.59671 17.6346 7.25786C17.6667 7.41886 17.6667 7.61246 17.6667 7.99967C17.6667 8.38689 17.6667 8.58049 17.6346 8.74149C17.5031 9.40264 16.9863 9.91947 16.3252 10.051C16.1642 10.083 15.9705 10.083 15.5833 10.083H13.9167C13.5295 10.083 13.3358 10.083 13.1748 10.051C12.5137 9.91947 11.9969 9.40264 11.8654 8.74149C11.8333 8.58049 11.8333 8.38689 11.8333 7.99967Z" stroke="#16223B" stroke-width="1.8" stroke-linecap="round" stroke-linejoin="round"/>
</svg>
