<svg width="75" height="74" viewBox="0 0 75 74" fill="none" xmlns="http://www.w3.org/2000/svg">
<path d="M22.5 3.25H15.75C11.5496 3.25 9.44941 3.25 7.84507 4.06745C6.43386 4.7865 5.2865 5.93386 4.56745 7.34507C3.75 8.94941 3.75 11.0496 3.75 15.25V22M22.5 70.75H15.75C11.5496 70.75 9.44941 70.75 7.84507 69.9325C6.43386 69.2135 5.2865 68.0661 4.56745 66.6549C3.75 65.0506 3.75 62.9504 3.75 58.75V52M71.25 22V15.25C71.25 11.0496 71.25 8.94941 70.4325 7.34507C69.7135 5.93386 68.5661 4.7865 67.1549 4.06745C65.5506 3.25 63.4504 3.25 59.25 3.25H52.5M71.25 52V58.75C71.25 62.9504 71.25 65.0506 70.4325 66.6549C69.7135 68.0661 68.5661 69.2135 67.1549 69.9325C65.5506 70.75 63.4504 70.75 59.25 70.75H52.5M37.5 55.75L37.5 18.25M18.75 37H56.25" stroke="#B8BDC7" stroke-width="6" stroke-linecap="round" stroke-linejoin="round"/>
</svg>
