<svg width="23" height="22" viewBox="0 0 23 22" fill="none" xmlns="http://www.w3.org/2000/svg">
<path d="M15.6449 17.0153C16.0738 18.6157 15.124 20.2607 13.5236 20.6895C11.9232 21.1183 10.2782 20.1686 9.84938 18.5682M2.05586 10.6138C1.66636 9.21562 2.0714 7.70398 3.10781 6.68786M12.1453 4.74134C12.4495 4.19404 12.5498 3.53254 12.3749 2.87994C12.0175 1.54627 10.6467 0.754819 9.31303 1.11217C7.97936 1.46953 7.1879 2.84037 7.54526 4.17404C7.72012 4.82663 8.13765 5.3494 8.67476 5.67128M20.318 5.72049C19.9563 4.31488 18.8497 3.20828 17.4441 2.8465M17.4897 8.44577C17.1327 7.11364 16.1798 5.99967 14.8405 5.34894C13.5012 4.69821 11.8853 4.56401 10.3482 4.97587C8.81116 5.38773 7.47884 6.31191 6.64436 7.54509C5.80988 8.77828 5.5416 10.2195 5.89855 11.5516C6.48912 13.7557 6.37444 15.514 6.00149 16.8502C5.57642 18.373 5.36389 19.1345 5.42131 19.2873C5.487 19.4623 5.53452 19.5103 5.70875 19.5778C5.86104 19.6368 6.50081 19.4654 7.78035 19.1225L19.6454 15.9433C20.925 15.6004 21.5647 15.429 21.6671 15.3018C21.7843 15.1562 21.8014 15.0908 21.7708 14.9065C21.7441 14.7454 21.1793 14.1922 20.0498 13.0859C19.0587 12.1153 18.0802 10.6498 17.4897 8.44577Z" stroke="black" stroke-width="2" stroke-linecap="round" stroke-linejoin="round"/>
</svg>
