<svg width="18" height="18" viewBox="0 0 18 18" fill="none" xmlns="http://www.w3.org/2000/svg">
<path d="M14.2 6.2V14.2M3.8 14.2V15.5C3.8 16.3284 4.47157 17 5.3 17H12.7C13.5284 17 14.2 16.3284 14.2 15.5V14.2M3.8 14.2H2.5C1.67157 14.2 1 13.5284 1 12.7V6.2C1 5 1.8 3.6 3 2.6C4.00341 1.76383 5.84584 1.20733 6.42259 1.04743C6.54077 1.01467 6.66202 1 6.78466 1H11.2153C11.338 1 11.4592 1.01467 11.5774 1.04743C12.1542 1.20733 13.9966 1.76383 15 2.6C16.2 3.6 17 5 17 6.2V12.7C17 13.5284 16.3284 14.2 15.5 14.2H14.2M3.8 14.2V6.2" stroke="#16223B" stroke-width="1.6" stroke-linecap="round" stroke-linejoin="round"/>
</svg>
