<svg width="24" height="22" viewBox="0 0 24 22" fill="none" xmlns="http://www.w3.org/2000/svg">
<path d="M5.4336 5.75758C5.4336 5.99868 5.33878 6.22991 5.17 6.4004C5.00121 6.57089 4.77229 6.66667 4.5336 6.66667C4.29491 6.66667 4.06599 6.57089 3.8972 6.4004C3.72842 6.22991 3.6336 5.99868 3.6336 5.75758C3.6336 5.51647 3.72842 5.28524 3.8972 5.11475C4.06599 4.94426 4.29491 4.84848 4.5336 4.84848C4.77229 4.84848 5.00121 4.94426 5.17 5.11475C5.33878 5.28524 5.4336 5.51647 5.4336 5.75758ZM4.5372 14.5455C4.29851 14.5455 4.06959 14.6412 3.9008 14.8117C3.73202 14.9822 3.6372 15.2134 3.6372 15.4545C3.6372 15.6957 3.73202 15.9269 3.9008 16.0974C4.06959 16.2679 4.29851 16.3636 4.5372 16.3636H10.5372C10.7759 16.3636 11.0048 16.2679 11.1736 16.0974C11.3424 15.9269 11.4372 15.6957 11.4372 15.4545C11.4372 15.2134 11.3424 14.9822 11.1736 14.8117C11.0048 14.6412 10.7759 14.5455 10.5372 14.5455H4.5372ZM3.6372 10.6061C3.6372 10.365 3.73202 10.1337 3.9008 9.96324C4.06959 9.79275 4.29851 9.69697 4.5372 9.69697H10.5372C10.6554 9.69697 10.7724 9.72048 10.8816 9.76617C10.9908 9.81186 11.09 9.87882 11.1736 9.96324C11.2572 10.0477 11.3235 10.1479 11.3687 10.2582C11.4139 10.3685 11.4372 10.4867 11.4372 10.6061C11.4372 10.7254 11.4139 10.8437 11.3687 10.954C11.3235 11.0643 11.2572 11.1645 11.1736 11.2489C11.09 11.3333 10.9908 11.4003 10.8816 11.446C10.7724 11.4916 10.6554 11.5152 10.5372 11.5152H4.5372C4.29851 11.5152 4.06959 11.4194 3.9008 11.2489C3.73202 11.0784 3.6372 10.8472 3.6372 10.6061ZM15.6 21.8182C16.1482 21.8144 16.6784 21.6198 17.1012 21.2672C17.524 20.9146 17.8134 20.4255 17.9208 19.8824L18.4968 16.9697H21.9C22.457 16.9697 22.9911 16.7462 23.3849 16.3484C23.7788 15.9506 24 15.4111 24 14.8485V7.58909C24 6.86454 23.716 6.16947 23.21 5.65589C22.704 5.14231 22.0173 4.85201 21.3 4.84848V4.84364H15V2.72727C15 2.00396 14.7155 1.31026 14.2092 0.7988C13.7028 0.287337 13.0161 0 12.3 0H2.7C1.98392 0 1.29716 0.287337 0.790812 0.7988C0.284463 1.31026 0 2.00396 0 2.72727V17.8788C0 18.9236 0.410892 19.9256 1.14228 20.6644C1.87368 21.4031 2.86566 21.8182 3.9 21.8182H15.6ZM1.8 2.72727C1.8 2.48617 1.89482 2.25494 2.0636 2.08445C2.23239 1.91396 2.46131 1.81818 2.7 1.81818H12.3C12.5387 1.81818 12.7676 1.91396 12.9364 2.08445C13.1052 2.25494 13.2 2.48617 13.2 2.72727V19.4109C13.2 19.6133 13.224 19.8109 13.272 20H3.9C3.34305 20 2.8089 19.7765 2.41508 19.3787C2.02125 18.9809 1.8 18.4414 1.8 17.8788V2.72727ZM15 6.66182H18.732C18.6873 6.78912 18.652 6.91957 18.6264 7.05212L16.1556 19.5261C16.1278 19.67 16.0479 19.7982 15.9314 19.8858C15.815 19.9733 15.6704 20.0139 15.5259 19.9995C15.3815 19.9851 15.2475 19.9168 15.1503 19.808C15.053 19.6991 14.9994 19.5575 15 19.4109V6.66182ZM20.3904 7.40849C20.4338 7.18288 20.5591 6.98176 20.7416 6.84454C20.9241 6.70732 21.1508 6.64387 21.3772 6.66662C21.6036 6.68937 21.8135 6.79668 21.9657 6.96753C22.1179 7.13838 22.2014 7.36047 22.2 7.5903V14.8485C22.2 14.9289 22.1684 15.0059 22.1121 15.0628C22.0559 15.1196 21.9796 15.1515 21.9 15.1515H18.858L20.3904 7.40849Z" fill="#16223B"/>
</svg>
