<svg width="14" height="16" viewBox="0 0 14 16" fill="none" xmlns="http://www.w3.org/2000/svg">
<path d="M4.33333 5.2L1.72897 8.4815C1.49643 8.7745 1.38016 8.921 1.37839 9.04472C1.37684 9.15228 1.42249 9.25461 1.50217 9.32223C1.59383 9.4 1.77545 9.4 2.13869 9.4H7L6.33333 15L9.66667 10.8M9.43336 6.6H11.8613C12.2245 6.6 12.4062 6.6 12.4978 6.67777C12.5775 6.74539 12.6232 6.84772 12.6216 6.95528C12.6198 7.079 12.5036 7.2255 12.271 7.5185L11.3668 8.65779M6.0485 3.03885L7.66664 1L7.26683 4.3584M13 14.3L1 1.7" stroke="black" stroke-width="1.6" stroke-linecap="round" stroke-linejoin="round"/>
</svg>
