<svg width="18" height="16" viewBox="0 0 18 16" fill="none" xmlns="http://www.w3.org/2000/svg">
<path d="M16.5 11.75V8.75C16.5 4.60786 13.1421 1.25 9 1.25C4.85786 1.25 1.5 4.60786 1.5 8.75V11.75M5.625 14.75C4.58947 14.75 3.75 13.9105 3.75 12.875V10.625C3.75 9.58947 4.58947 8.75 5.625 8.75C6.66053 8.75 7.5 9.58947 7.5 10.625V12.875C7.5 13.9105 6.66053 14.75 5.625 14.75ZM12.375 14.75C11.3395 14.75 10.5 13.9105 10.5 12.875V10.625C10.5 9.58947 11.3395 8.75 12.375 8.75C13.4105 8.75 14.25 9.58947 14.25 10.625V12.875C14.25 13.9105 13.4105 14.75 12.375 14.75Z" stroke="#16223B" stroke-width="1.8" stroke-linecap="round" stroke-linejoin="round"/>
</svg>
