<svg width="48" height="48" viewBox="0 0 48 48" fill="none" xmlns="http://www.w3.org/2000/svg">
<path d="M28.2 33H18.9314C18.3256 33 18.0226 33 17.8824 32.8802C17.7607 32.7763 17.6961 32.6203 17.7086 32.4608C17.7231 32.2769 17.9373 32.0627 18.3657 31.6343L26.8686 23.1314C27.2646 22.7354 27.4627 22.5373 27.691 22.4632C27.8918 22.3979 28.1082 22.3979 28.309 22.4632C28.5373 22.5373 28.7354 22.7354 29.1314 23.1314L33 27V28.2M28.2 33C29.8802 33 30.7202 33 31.362 32.673C31.9265 32.3854 32.3854 31.9265 32.673 31.362C33 30.7202 33 29.8802 33 28.2M28.2 33H19.8C18.1198 33 17.2798 33 16.638 32.673C16.0735 32.3854 15.6146 31.9265 15.327 31.362C15 30.7202 15 29.8802 15 28.2V19.8C15 18.1198 15 17.2798 15.327 16.638C15.6146 16.0735 16.0735 15.6146 16.638 15.327C17.2798 15 18.1198 15 19.8 15H28.2C29.8802 15 30.7202 15 31.362 15.327C31.9265 15.6146 32.3854 16.0735 32.673 16.638C33 17.2798 33 18.1198 33 19.8V28.2M22.5 20.5C22.5 21.6046 21.6046 22.5 20.5 22.5C19.3954 22.5 18.5 21.6046 18.5 20.5C18.5 19.3954 19.3954 18.5 20.5 18.5C21.6046 18.5 22.5 19.3954 22.5 20.5Z" stroke="white" stroke-width="2" stroke-linecap="round" stroke-linejoin="round"/>
<rect x="0.5" y="0.5" width="47" height="47" rx="9.5" stroke="white"/>
</svg>
