<svg width="67" height="66" viewBox="0 0 67 66" fill="none" xmlns="http://www.w3.org/2000/svg">
<path d="M21.5 3H8.83333C6.96649 3 6.03307 3 5.32003 3.36331C4.69282 3.68289 4.18289 4.19282 3.86331 4.82003C3.5 5.53307 3.5 6.46649 3.5 8.33333V21C3.5 22.8668 3.5 23.8003 3.86331 24.5133C4.18289 25.1405 4.69282 25.6504 5.32003 25.97C6.03307 26.3333 6.96649 26.3333 8.83333 26.3333H21.5C23.3668 26.3333 24.3003 26.3333 25.0133 25.97C25.6405 25.6504 26.1504 25.1405 26.47 24.5133C26.8333 23.8003 26.8333 22.8668 26.8333 21V8.33333C26.8333 6.46649 26.8333 5.53307 26.47 4.82003C26.1504 4.19282 25.6405 3.68289 25.0133 3.36331C24.3003 3 23.3668 3 21.5 3Z" stroke="#B8BDC7" stroke-width="6" stroke-linecap="round" stroke-linejoin="round"/>
<path d="M58.1667 3H45.5C43.6332 3 42.6997 3 41.9867 3.36331C41.3595 3.68289 40.8496 4.19282 40.53 4.82003C40.1667 5.53307 40.1667 6.46649 40.1667 8.33333V21C40.1667 22.8668 40.1667 23.8003 40.53 24.5133C40.8496 25.1405 41.3595 25.6504 41.9867 25.97C42.6997 26.3333 43.6332 26.3333 45.5 26.3333H58.1667C60.0335 26.3333 60.9669 26.3333 61.68 25.97C62.3072 25.6504 62.8171 25.1405 63.1367 24.5133C63.5 23.8003 63.5 22.8668 63.5 21V8.33333C63.5 6.46649 63.5 5.53307 63.1367 4.82003C62.8171 4.19282 62.3072 3.68289 61.68 3.36331C60.9669 3 60.0335 3 58.1667 3Z" stroke="#B8BDC7" stroke-width="6" stroke-linecap="round" stroke-linejoin="round"/>
<path d="M58.1667 39.6667H45.5C43.6332 39.6667 42.6997 39.6667 41.9867 40.03C41.3595 40.3496 40.8496 40.8595 40.53 41.4867C40.1667 42.1997 40.1667 43.1332 40.1667 45V57.6667C40.1667 59.5335 40.1667 60.4669 40.53 61.18C40.8496 61.8072 41.3595 62.3171 41.9867 62.6367C42.6997 63 43.6332 63 45.5 63H58.1667C60.0335 63 60.9669 63 61.68 62.6367C62.3072 62.3171 62.8171 61.8072 63.1367 61.18C63.5 60.4669 63.5 59.5335 63.5 57.6667V45C63.5 43.1332 63.5 42.1997 63.1367 41.4867C62.8171 40.8595 62.3072 40.3496 61.68 40.03C60.9669 39.6667 60.0335 39.6667 58.1667 39.6667Z" stroke="#B8BDC7" stroke-width="6" stroke-linecap="round" stroke-linejoin="round"/>
<path d="M21.5 39.6667H8.83333C6.96649 39.6667 6.03307 39.6667 5.32003 40.03C4.69282 40.3496 4.18289 40.8595 3.86331 41.4867C3.5 42.1997 3.5 43.1332 3.5 45V57.6667C3.5 59.5335 3.5 60.4669 3.86331 61.18C4.18289 61.8072 4.69282 62.3171 5.32003 62.6367C6.03307 63 6.96649 63 8.83333 63H21.5C23.3668 63 24.3003 63 25.0133 62.6367C25.6405 62.3171 26.1504 61.8072 26.47 61.18C26.8333 60.4669 26.8333 59.5335 26.8333 57.6667V45C26.8333 43.1332 26.8333 42.1997 26.47 41.4867C26.1504 40.8595 25.6405 40.3496 25.0133 40.03C24.3003 39.6667 23.3668 39.6667 21.5 39.6667Z" stroke="#B8BDC7" stroke-width="6" stroke-linecap="round" stroke-linejoin="round"/>
</svg>
