<svg width="24" height="24" viewBox="0 0 24 24" fill="none" xmlns="http://www.w3.org/2000/svg">
<path d="M14 3H3C1.89543 3 1 3.89543 1 5V14C1 15.1046 1.89543 16 3 16H14C15.1046 16 16 15.1046 16 14V5C16 3.89543 15.1046 3 14 3Z" stroke="#050E21" stroke-width="2" stroke-linecap="round" stroke-linejoin="round"/>
<path d="M16 9C16 8.44772 16.4477 8 17 8H19.5858C19.851 8 20.1054 8.10536 20.2929 8.29289L22.7071 10.7071C22.8946 10.8946 23 11.149 23 11.4142V15C23 15.5523 22.5523 16 22 16H17C16.4477 16 16 15.5523 16 15V9Z" stroke="#050E21" stroke-width="2" stroke-linecap="round" stroke-linejoin="round"/>
<path d="M5.5 21C6.88071 21 8 19.8807 8 18.5C8 17.1193 6.88071 16 5.5 16C4.11929 16 3 17.1193 3 18.5C3 19.8807 4.11929 21 5.5 21Z" stroke="#050E21" stroke-width="2" stroke-linecap="round" stroke-linejoin="round"/>
<path d="M18.5 21C19.8807 21 21 19.8807 21 18.5C21 17.1193 19.8807 16 18.5 16C17.1193 16 16 17.1193 16 18.5C16 19.8807 17.1193 21 18.5 21Z" stroke="#050E21" stroke-width="2" stroke-linecap="round" stroke-linejoin="round"/>
</svg>
